<?xml version="1.0" standalone="no"?>
<!DOCTYPE svg PUBLIC "-//W3C//DTD SVG 20010904//EN"
 "http://www.w3.org/TR/2001/REC-SVG-20010904/DTD/svg10.dtd">
<svg version="1.0" xmlns="http://www.w3.org/2000/svg"
 width="512.000000pt" height="512.000000pt" viewBox="0 0 512.000000 512.000000"
 preserveAspectRatio="xMidYMid meet">

<g transform="translate(0.000000,512.000000) scale(0.100000,-0.100000)"
fill="#000000" stroke="none">
<path d="M1165 4641 c-15 -6 -11 -9 20 -14 52 -9 2648 -9 2670 -1 13 5 14 8 3
15 -16 11 -2666 10 -2693 0z"/>
<path d="M1063 4558 c-4 -7 -9 -410 -11 -896 -2 -882 0 -970 31 -959 9 3 13
224 15 935 2 808 0 932 -12 932 -8 0 -18 -6 -23 -12z"/>
<path d="M3955 4509 c-10 -44 -1 -1754 10 -1754 13 0 19 1755 6 1768 -6 6 -12
1 -16 -14z"/>
<path d="M2695 4133 c-9 -21 -7 -61 5 -82 6 -11 12 -3 21 27 11 37 10 45 -3
58 -14 14 -16 14 -23 -3z"/>
<path d="M2625 3990 c-3 -5 -8 -31 -12 -58 -4 -36 -2 -51 10 -61 14 -11 17 -9
22 13 3 14 7 38 10 52 10 44 -12 83 -30 54z"/>
<path d="M2989 3984 c-20 -24 9 -48 44 -35 34 13 34 17 -2 35 -26 14 -30 14
-42 0z"/>
<path d="M1980 3970 c-11 -7 -4 -10 28 -10 23 0 42 5 42 10 0 13 -50 13 -70 0z"/>
<path d="M1861 3906 l-24 -13 22 -13 c31 -16 88 5 70 26 -14 17 -37 17 -68 0z"/>
<path d="M3116 3908 c-18 -10 -18 -11 5 -24 31 -17 54 -17 68 -1 8 11 5 16
-15 25 -30 14 -34 14 -58 0z"/>
<path d="M1718 3836 c-23 -17 -23 -23 2 -36 15 -8 28 -7 52 6 30 16 31 17 13
30 -23 17 -45 17 -67 0z"/>
<path d="M3235 3830 c-5 -9 7 -16 61 -34 18 -7 37 11 31 28 -7 18 -82 23 -92
6z"/>
<path d="M2551 3797 c-13 -35 -14 -97 -1 -117 7 -11 11 -9 19 13 13 35 14 97
1 117 -7 11 -11 9 -19 -13z"/>
<path d="M1577 3758 c-17 -13 -17 -15 -3 -28 14 -11 23 -11 57 0 22 7 36 17
31 22 -16 16 -67 19 -85 6z"/>
<path d="M3365 3761 c-12 -20 6 -31 50 -31 40 0 66 12 48 23 -20 12 -91 18
-98 8z"/>
<path d="M3494 3676 c-9 -36 -1 -88 16 -99 11 -6 28 -4 53 6 34 15 37 19 37
54 0 35 -3 40 -33 51 -49 18 -66 15 -73 -12z"/>
<path d="M1437 3684 c-13 -13 -7 -81 7 -93 8 -7 32 -11 53 -9 l38 3 0 50 0 50
-45 3 c-25 2 -49 0 -53 -4z"/>
<path d="M2475 3618 c-13 -42 -14 -90 -4 -110 l12 -23 13 30 c14 33 17 74 8
99 -7 19 -23 21 -29 4z"/>
<path d="M1575 3540 c-12 -20 7 -30 56 -30 58 0 64 15 12 29 -47 14 -60 14
-68 1z"/>
<path d="M3405 3541 c-26 -4 -40 -11 -40 -21 0 -11 10 -14 45 -11 25 1 48 5
52 7 8 5 -1 35 -11 33 -3 -1 -24 -5 -46 -8z"/>
<path d="M1728 3472 c-10 -2 -18 -10 -18 -18 0 -25 79 -33 87 -9 4 13 -46 32
-69 27z"/>
<path d="M3260 3464 c-27 -12 -32 -17 -20 -24 35 -22 98 -5 87 24 -8 20 -22
20 -67 0z"/>
<path d="M2401 3427 c-18 -46 -12 -117 9 -117 21 0 28 98 10 130 -7 12 -11 9
-19 -13z"/>
<path d="M3127 3393 c-23 -12 -26 -17 -16 -29 14 -18 48 -18 72 0 13 10 14 15
5 23 -26 20 -34 21 -61 6z"/>
<path d="M1851 3387 c-15 -18 30 -40 65 -31 29 7 31 20 5 34 -27 14 -56 13
-70 -3z"/>
<path d="M2990 3316 c-7 -10 -6 -17 4 -25 12 -10 21 -9 42 2 l27 14 -31 11
c-24 8 -33 8 -42 -2z"/>
<path d="M1990 3310 c-24 -7 -23 -7 13 -15 40 -8 53 -3 42 14 -7 12 -18 12
-55 1z"/>
<path d="M2326 3238 c-13 -65 -14 -86 -4 -96 19 -19 38 6 38 48 0 64 -24 97
-34 48z"/>
<path d="M1695 2650 c-297 -3 -542 -7 -545 -9 -22 -14 114 -19 548 -20 l503
-1 24 -25 c24 -24 25 -28 25 -181 0 -125 -3 -163 -17 -191 -16 -34 -16 -36 3
-50 19 -14 70 -11 87 6 4 4 -3 25 -17 46 -25 36 -26 43 -26 187 0 148 0 149
26 173 15 14 45 27 70 31 75 11 325 -1 370 -19 38 -14 43 -14 58 1 15 15 70
18 541 22 288 3 527 8 530 12 4 4 -3 9 -16 12 -34 8 -1525 12 -2164 6z"/>
<path d="M2744 2207 l-39 -21 38 -9 c22 -5 46 -6 57 -1 18 9 18 10 1 30 l-17
21 -40 -20z"/>
<path d="M1935 1520 c-7 -12 39 -24 60 -16 8 3 15 10 15 16 0 13 -67 13 -75 0z"/>
<path d="M2960 1521 c0 -14 38 -24 66 -17 40 10 27 26 -21 26 -25 0 -45 -4
-45 -9z"/>
<path d="M592 1488 c-15 -19 -16 -40 -4 -71 8 -19 12 -123 12 -328 0 -323 2
-340 54 -392 14 -14 26 -35 26 -45 0 -28 19 -40 70 -44 55 -4 69 22 21 41 -16
7 -35 26 -41 42 -7 15 -23 40 -36 54 l-24 26 0 340 c0 296 -2 343 -16 364 -18
27 -45 32 -62 13z"/>
<path d="M1270 1482 l-24 -19 22 -51 c21 -48 22 -66 22 -294 0 -176 -4 -265
-15 -323 -20 -103 -24 -115 -38 -115 -24 0 -71 -46 -64 -63 23 -60 144 35 158
123 4 27 9 198 10 380 l2 332 -25 24 c-24 25 -25 25 -48 6z"/>
<path d="M3719 1482 c-23 -20 -23 -20 -6 -56 15 -33 17 -76 17 -410 0 -409 4
-469 29 -464 23 5 28 44 30 221 l1 157 47 30 48 30 159 -2 160 -3 29 -42 c23
-36 31 -41 46 -33 27 14 39 146 17 188 -9 17 -20 33 -26 37 -5 3 -23 -21 -40
-55 l-30 -60 -153 0 c-175 0 -201 9 -237 79 -17 34 -20 59 -20 158 l0 117 37
38 c37 38 37 38 18 57 -31 30 -96 36 -126 13z"/>
<path d="M4302 1488 c-7 -7 -12 -19 -12 -28 0 -24 30 -109 42 -116 19 -12 48
28 48 68 0 66 -44 110 -78 76z"/>
<path d="M1710 1466 c-24 -8 -41 -24 -53 -48 -24 -49 -32 -180 -14 -237 12
-39 19 -46 51 -55 21 -6 47 -20 59 -32 38 -37 64 -44 150 -44 60 0 88 4 96 14
9 11 3 16 -31 24 -24 6 -74 14 -111 17 -58 6 -70 11 -79 30 -5 12 -25 29 -44
38 -33 16 -36 23 -48 92 -5 32 11 112 26 132 5 7 32 19 59 28 46 16 59 28 42
38 -22 13 -72 14 -103 3z"/>
<path d="M2167 1469 c-26 -15 -21 -26 18 -39 46 -15 65 -44 65 -98 0 -39 2
-43 23 -40 19 3 22 10 25 53 5 76 -5 114 -31 119 -62 13 -84 14 -100 5z"/>
<path d="M2752 1458 c-7 -7 -12 -17 -12 -24 0 -6 -10 -14 -22 -18 -39 -9 -116
-92 -124 -131 -3 -20 -14 -40 -24 -45 -29 -15 -43 -107 -38 -249 4 -126 15
-171 42 -171 11 0 15 37 18 185 l3 185 27 25 c15 14 33 44 40 67 8 28 22 47
41 57 15 9 30 27 33 42 5 22 15 27 75 43 69 18 83 28 53 40 -27 10 -99 7 -112
-6z"/>
<path d="M3125 1460 c-10 -16 -8 -16 70 -38 58 -16 71 -23 75 -43 3 -13 18
-30 34 -37 15 -8 30 -21 32 -30 16 -50 39 -92 50 -92 22 0 25 -16 28 -131 5
-150 -4 -219 -32 -247 -12 -12 -27 -42 -33 -68 -8 -30 -19 -49 -33 -56 -12 -5
-26 -19 -31 -31 -6 -11 -24 -25 -41 -29 -44 -11 -62 -34 -43 -54 13 -12 21
-12 63 2 37 13 50 23 58 45 6 18 19 31 35 35 17 5 31 20 44 51 10 25 19 51 19
58 0 8 8 19 19 24 39 21 54 198 30 338 -9 53 -15 66 -35 73 -19 8 -24 17 -24
43 0 21 -8 41 -20 53 -11 10 -37 36 -57 57 -20 20 -41 37 -47 37 -6 0 -16 10
-21 23 -9 19 -19 22 -72 25 -37 2 -64 -1 -68 -8z"/>
<path d="M2051 1016 c-15 -18 -13 -20 60 -35 67 -15 99 -29 99 -43 1 -17 51
-73 73 -81 28 -10 22 -127 -7 -127 -6 0 -17 -14 -25 -31 -8 -17 -27 -39 -42
-48 -16 -9 -29 -24 -29 -33 0 -15 9 -18 44 -18 49 0 60 10 71 59 4 20 14 35
25 38 20 5 30 43 30 107 0 46 -7 59 -32 69 -12 4 -18 17 -18 35 0 28 -26 62
-47 62 -6 0 -20 12 -31 27 -18 24 -28 28 -89 31 -54 3 -72 1 -82 -12z"/>
<path d="M2600 793 c0 -59 19 -99 52 -114 20 -9 35 -23 38 -39 5 -21 13 -26
53 -30 26 -4 50 -4 52 -1 14 13 1 31 -30 41 -19 6 -40 20 -45 31 -6 10 -22 30
-35 43 -14 14 -25 33 -25 43 -1 25 -24 53 -44 53 -11 0 -16 -9 -16 -27z"/>
<path d="M1587 728 c-9 -31 -8 -91 1 -104 4 -6 26 -14 50 -18 71 -11 68 20
-11 107 -33 38 -34 38 -40 15z"/>
<path d="M833 584 c-23 -10 -14 -32 18 -43 85 -29 363 2 284 32 -21 9 -288 18
-302 11z"/>
<path d="M1785 583 c-52 -6 -75 -13 -75 -22 0 -18 95 -31 232 -31 182 0 256
19 199 50 -18 9 -286 12 -356 3z"/>
<path d="M2841 581 c-22 -14 -6 -37 29 -45 51 -10 241 -7 283 5 41 11 47 23
18 39 -24 12 -310 13 -330 1z"/>
</g>
</svg>
